<svg height="1470" width="720" xmlns="http://www.w3.org/2000/svg">
<rect height="1470" fill="#555" width="720"></rect>
<text fill="#7f7" font-family="Courier New" font-size="12" xml:space="preserve">
<tspan x="10" y="26">12 megabytes installed</tspan>
<tspan x="10" y="42"></tspan>
<tspan x="10" y="58">node_modules</tspan>
<tspan x="10" y="74">└─┬ twilio@2.11.1 </tspan>
<tspan x="10" y="90">  ├── deprecate@0.1.0 </tspan>
<tspan x="10" y="106">  ├─┬ jsonwebtoken@5.4.1 </tspan>
<tspan x="10" y="122">  │ ├─┬ jws@3.1.4 </tspan>
<tspan x="10" y="138">  │ │ ├── base64url@2.0.0 </tspan>
<tspan x="10" y="154">  │ │ ├─┬ jwa@1.1.5 </tspan>
<tspan x="10" y="170">  │ │ │ ├── buffer-equal-constant-time@1.0.1 </tspan>
<tspan x="10" y="186">  │ │ │ └── ecdsa-sig-formatter@1.0.9 </tspan>
<tspan x="10" y="202">  │ │ └── safe-buffer@5.0.1 </tspan>
<tspan x="10" y="218">  │ └── ms@0.7.3 </tspan>
<tspan x="10" y="234">  ├── q@0.9.7 </tspan>
<tspan x="10" y="250">  ├─┬ request@2.74.0 </tspan>
<tspan x="10" y="266">  │ ├── aws-sign2@0.6.0 </tspan>
<tspan x="10" y="282">  │ ├── aws4@1.6.0 </tspan>
<tspan x="10" y="298">  │ ├─┬ bl@1.1.2 </tspan>
<tspan x="10" y="314">  │ │ └─┬ readable-stream@2.0.6 </tspan>
<tspan x="10" y="330">  │ │   ├── core-util-is@1.0.2 </tspan>
<tspan x="10" y="346">  │ │   ├── inherits@2.0.3 </tspan>
<tspan x="10" y="362">  │ │   ├── isarray@1.0.0 </tspan>
<tspan x="10" y="378">  │ │   ├── process-nextick-args@1.0.7 </tspan>
<tspan x="10" y="394">  │ │   ├── string_decoder@0.10.31 </tspan>
<tspan x="10" y="410">  │ │   └── util-deprecate@1.0.2 </tspan>
<tspan x="10" y="426">  │ ├── caseless@0.11.0 </tspan>
<tspan x="10" y="442">  │ ├─┬ combined-stream@1.0.5 </tspan>
<tspan x="10" y="458">  │ │ └── delayed-stream@1.0.0 </tspan>
<tspan x="10" y="474">  │ ├── extend@3.0.0 </tspan>
<tspan x="10" y="490">  │ ├── forever-agent@0.6.1 </tspan>
<tspan x="10" y="506">  │ ├─┬ form-data@1.0.1 </tspan>
<tspan x="10" y="522">  │ │ └─┬ async@2.3.0 </tspan>
<tspan x="10" y="538">  │ │   └── lodash@4.17.4 </tspan>
<tspan x="10" y="554">  │ ├─┬ har-validator@2.0.6 </tspan>
<tspan x="10" y="570">  │ │ ├─┬ chalk@1.1.3 </tspan>
<tspan x="10" y="586">  │ │ │ ├── ansi-styles@2.2.1 </tspan>
<tspan x="10" y="602">  │ │ │ ├── escape-string-regexp@1.0.5 </tspan>
<tspan x="10" y="618">  │ │ │ ├─┬ has-ansi@2.0.0 </tspan>
<tspan x="10" y="634">  │ │ │ │ └── ansi-regex@2.1.1 </tspan>
<tspan x="10" y="650">  │ │ │ ├── strip-ansi@3.0.1 </tspan>
<tspan x="10" y="666">  │ │ │ └── supports-color@2.0.0 </tspan>
<tspan x="10" y="682">  │ │ ├─┬ commander@2.9.0 </tspan>
<tspan x="10" y="698">  │ │ │ └── graceful-readlink@1.0.1 </tspan>
<tspan x="10" y="714">  │ │ ├─┬ is-my-json-valid@2.16.0 </tspan>
<tspan x="10" y="730">  │ │ │ ├── generate-function@2.0.0 </tspan>
<tspan x="10" y="746">  │ │ │ ├─┬ generate-object-property@1.2.0 </tspan>
<tspan x="10" y="762">  │ │ │ │ └── is-property@1.0.2 </tspan>
<tspan x="10" y="778">  │ │ │ ├── jsonpointer@4.0.1 </tspan>
<tspan x="10" y="794">  │ │ │ └── xtend@4.0.1 </tspan>
<tspan x="10" y="810">  │ │ └─┬ pinkie-promise@2.0.1 </tspan>
<tspan x="10" y="826">  │ │   └── pinkie@2.0.4 </tspan>
<tspan x="10" y="842">  │ ├─┬ hawk@3.1.3 </tspan>
<tspan x="10" y="858">  │ │ ├── boom@2.10.1 </tspan>
<tspan x="10" y="874">  │ │ ├── cryptiles@2.0.5 </tspan>
<tspan x="10" y="890">  │ │ ├── hoek@2.16.3 </tspan>
<tspan x="10" y="906">  │ │ └── sntp@1.0.9 </tspan>
<tspan x="10" y="922">  │ ├─┬ http-signature@1.1.1 </tspan>
<tspan x="10" y="938">  │ │ ├── assert-plus@0.2.0 </tspan>
<tspan x="10" y="954">  │ │ ├─┬ jsprim@1.4.0 </tspan>
<tspan x="10" y="970">  │ │ │ ├── assert-plus@1.0.0 </tspan>
<tspan x="10" y="986">  │ │ │ ├── extsprintf@1.0.2 </tspan>
<tspan x="10" y="1002">  │ │ │ ├── json-schema@0.2.3 </tspan>
<tspan x="10" y="1018">  │ │ │ └── verror@1.3.6 </tspan>
<tspan x="10" y="1034">  │ │ └─┬ sshpk@1.13.0 </tspan>
<tspan x="10" y="1050">  │ │   ├── asn1@0.2.3 </tspan>
<tspan x="10" y="1066">  │ │   ├── assert-plus@1.0.0 </tspan>
<tspan x="10" y="1082">  │ │   ├── bcrypt-pbkdf@1.0.1 </tspan>
<tspan x="10" y="1098">  │ │   ├─┬ dashdash@1.14.1 </tspan>
<tspan x="10" y="1114">  │ │   │ └── assert-plus@1.0.0 </tspan>
<tspan x="10" y="1130">  │ │   ├── ecc-jsbn@0.1.1 </tspan>
<tspan x="10" y="1146">  │ │   ├─┬ getpass@0.1.6 </tspan>
<tspan x="10" y="1162">  │ │   │ └── assert-plus@1.0.0 </tspan>
<tspan x="10" y="1178">  │ │   ├── jodid25519@1.0.2 </tspan>
<tspan x="10" y="1194">  │ │   ├── jsbn@0.1.1 </tspan>
<tspan x="10" y="1210">  │ │   └── tweetnacl@0.14.5 </tspan>
<tspan x="10" y="1226">  │ ├── is-typedarray@1.0.0 </tspan>
<tspan x="10" y="1242">  │ ├── isstream@0.1.2 </tspan>
<tspan x="10" y="1258">  │ ├── json-stringify-safe@5.0.1 </tspan>
<tspan x="10" y="1274">  │ ├─┬ mime-types@2.1.15 </tspan>
<tspan x="10" y="1290">  │ │ └── mime-db@1.27.0 </tspan>
<tspan x="10" y="1306">  │ ├── node-uuid@1.4.8 </tspan>
<tspan x="10" y="1322">  │ ├── oauth-sign@0.8.2 </tspan>
<tspan x="10" y="1338">  │ ├── qs@6.2.3 </tspan>
<tspan x="10" y="1354">  │ ├── stringstream@0.0.5 </tspan>
<tspan x="10" y="1370">  │ ├─┬ tough-cookie@2.3.2 </tspan>
<tspan x="10" y="1386">  │ │ └── punycode@1.4.1 </tspan>
<tspan x="10" y="1402">  │ └── tunnel-agent@0.4.3 </tspan>
<tspan x="10" y="1418">  ├── scmp@0.0.3 </tspan>
<tspan x="10" y="1434">  ├── string.prototype.startswith@0.2.0 </tspan>
<tspan x="10" y="1450">  └── underscore@1.8.3</tspan>
</text>
</svg>
